<?xml version="1.0" encoding="utf-8"?>
<!-- Generator: Adobe Illustrator 16.2.1, SVG Export Plug-In . SVG Version: 6.00 Build 0)  -->
<!DOCTYPE svg PUBLIC "-//W3C//DTD SVG 1.1//EN" "http://www.w3.org/Graphics/SVG/1.1/DTD/svg11.dtd">
<svg version="1.1" id="Layer_1" xmlns="http://www.w3.org/2000/svg" xmlns:xlink="http://www.w3.org/1999/xlink" x="0px" y="0px"
	 width="171.363px" height="46.948px" viewBox="0 0 171.363 46.948" enable-background="new 0 0 171.363 46.948"
	 xml:space="preserve">
<g>
	<path d="M22.682,18.29c-3.601-2.448-7.201-3.312-10.801-3.312c-4.392,0-7.417,2.376-7.417,5.473
		c0,7.993,21.026,3.312,21.026,16.057c0,5.977-5.544,10.441-13.249,10.441c-4.32,0-8.785-0.864-12.241-3.024V39.82l0.36-0.36
		c3.96,2.592,7.921,3.457,11.881,3.457c5.616,0,8.856-2.592,8.856-6.409C21.098,28.155,0,32.691,0,20.45
		c0-5.401,5.041-9.505,11.881-9.505c4.321,0,8.281,1.08,11.161,2.88v4.104L22.682,18.29z"/>
	<path d="M39.889,3.384l0.36,0.432v8.209h14.473l0.36,0.36v3.457l-0.36,0.36H40.25v17.498c0,6.84,3.24,9.217,6.913,9.217
		c2.016,0,4.896-0.432,7.561-2.304l0.36,0.36v3.816c-2.088,1.296-5.329,2.16-7.92,2.16c-6.841,0-11.161-4.32-11.161-12.889V16.202
		H30.24l-0.36-0.36v-3.457l0.36-0.36h5.761V3.745l0.36-0.36H39.889z"/>
	<path d="M64.225,13.321c2.16-1.08,5.473-2.376,9.433-2.376c8.641,0,13.465,4.68,13.465,14.401v20.162l-0.36,0.36h-3.457l-0.36-0.36
		v-2.376c-2.88,2.16-7.201,3.816-11.089,3.816c-6.336,0-11.737-3.096-11.737-9.361c0-9.505,10.441-12.241,22.826-12.961
		c0-6.913-3.672-9.649-9.505-9.649c-3.96,0-7.201,1.296-10.729,3.384l-0.36-0.36L64.225,13.321z M82.946,28.371
		c-10.585,0.504-18.362,2.88-18.362,8.857c0,3.888,3.241,5.688,7.633,5.688c3.816,0,7.849-1.656,10.729-3.816V28.371z"/>
	<path d="M103.681,3.384l0.36,0.432v8.209h14.473l0.36,0.36v3.457l-0.36,0.36h-14.473v17.498c0,6.84,3.24,9.217,6.913,9.217
		c2.016,0,4.896-0.432,7.561-2.304l0.36,0.36v3.816c-2.088,1.296-5.329,2.16-7.92,2.16c-6.841,0-11.161-4.32-11.161-12.889V16.202
		h-5.761l-0.36-0.36v-3.457l0.36-0.36h5.761V3.745l0.36-0.36H103.681z"/>
	<path d="M129.313,0l2.952,3.024v0.72l-2.952,2.952h-0.72l-3.024-2.952v-0.72L128.593,0H129.313z M130.681,12.025l0.36,0.36v33.123
		l-0.36,0.36h-3.528l-0.36-0.36V12.385l0.36-0.36H130.681z"/>
	<path d="M171.003,19.082c-3.816-3.024-7.201-4.104-11.161-4.104c-8.137,0-13.897,6.121-13.897,13.969s5.76,13.969,13.897,13.969
		c3.96,0,7.345-1.08,11.161-4.104l0.36,0.36v4.177c-2.88,2.16-6.84,3.6-11.521,3.6c-10.945,0-18.361-8.064-18.361-18.001
		s7.417-18.001,18.361-18.001c4.681,0,8.641,1.44,11.521,3.6v4.176L171.003,19.082z"/>
</g>
</svg>
